<?xml version="1.0" standalone="no"?>
<!DOCTYPE svg PUBLIC "-//W3C//DTD SVG 20010904//EN"
 "http://www.w3.org/TR/2001/REC-SVG-20010904/DTD/svg10.dtd">
<svg version="1.0" xmlns="http://www.w3.org/2000/svg"
 width="546.000000pt" height="546.000000pt" viewBox="0 0 546.000000 546.000000"
 preserveAspectRatio="xMidYMid meet">
<metadata>
Created by potrace 1.11, written by Peter Selinger 2001-2013
</metadata>
<g transform="translate(0.000000,546.000000) scale(0.100000,-0.100000)"
fill="#000000" stroke="none">
<path d="M1415 4294 c-211 -51 -312 -130 -477 -374 -319 -472 -540 -805 -577
-867 -137 -231 -129 -439 26 -670 168 -250 449 -672 537 -808 54 -82 112 -165
130 -184 72 -77 210 -152 352 -192 71 -20 109 -23 363 -27 235 -3 282 -2 275
10 -4 7 -237 357 -517 776 -279 420 -511 770 -513 776 -3 7 227 361 511 786
283 425 515 777 515 781 0 16 -557 9 -625 -7z"/>
<path d="M3475 4299 c5 -8 238 -358 519 -779 280 -421 510 -772 510 -780 0 -8
-228 -358 -508 -778 -279 -420 -510 -770 -513 -778 -5 -14 31 -15 303 -12 302
4 310 5 379 30 39 14 94 39 124 54 69 37 217 182 262 257 19 31 147 224 284
427 279 413 262 388 328 496 107 177 119 357 37 539 -27 60 -457 715 -492 748
-10 10 -18 23 -18 30 0 20 -192 299 -237 343 -86 84 -205 148 -353 189 -87 24
-638 36 -625 14z"/>
<path d="M2572 3028 c-331 -662 -602 -1206 -602 -1211 0 -7 314 -482 331 -501
7 -8 1209 2381 1209 2404 0 9 -309 480 -330 503 -3 4 -277 -534 -608 -1195z"/>
<path d="M1993 3555 c-57 -24 -63 -51 -63 -273 0 -235 1 -232 -84 -208 -62 18
-94 11 -120 -26 -36 -51 -9 -115 61 -149 38 -19 63 -23 123 -22 84 1 132 17
172 60 56 58 62 89 66 320 4 241 -1 267 -64 296 -41 20 -49 20 -91 2z"/>
<path d="M3390 2457 c-47 -24 -50 -43 -50 -338 l0 -276 26 -26 c37 -37 89 -45
134 -21 44 24 59 64 59 162 l1 72 80 0 c73 0 83 3 105 25 27 26 34 80 14 117
-16 29 -70 48 -138 48 -43 0 -60 4 -65 15 -13 35 3 43 101 47 89 3 96 5 119
31 39 46 27 123 -23 146 -35 16 -331 14 -363 -2z"/>
</g>
</svg>
